HIERARCHY
ROOT Hips
{
	OFFSET 0.000000 0.000000 0.000000
	CHANNELS 6 Xposition Yposition Zposition Zrotation Yrotation Xrotation 
	JOINT LHipJoint
	{
		OFFSET 0.000000 0.000000 0.000000
		CHANNELS 3 Zrotation Yrotation Xrotation
		JOINT LeftUpLeg
		{
			OFFSET 1.363060 -1.794630 0.839290
			CHANNELS 3 Zrotation Yrotation Xrotation
			JOINT LeftLeg
			{
				OFFSET 2.448110 -6.726130 0.000000
				CHANNELS 3 Zrotation Yrotation Xrotation
				JOINT LeftFoot
				{
					OFFSET 2.562200 -7.039590 0.000000
					CHANNELS 3 Zrotation Yrotation Xrotation
					JOINT LeftToeBase
					{
						OFFSET 0.157640 -0.433110 2.322550
						CHANNELS 3 Zrotation Yrotation Xrotation
						End Site
						{
							OFFSET 0.000000 0.000000 0.000000
						}
					}
				}
			}
		}
	}
	JOINT RHipJoint
	{
		OFFSET 0.000000 0.000000 0.000000
		CHANNELS 3 Zrotation Yrotation Xrotation
		JOINT RightUpLeg
		{
			OFFSET -1.305520 -1.794630 0.839290
			CHANNELS 3 Zrotation Yrotation Xrotation
			JOINT RightLeg
			{
				OFFSET -2.542530 -6.985550 0.000000
				CHANNELS 3 Zrotation Yrotation Xrotation
				JOINT RightFoot
				{
					OFFSET -2.568260 -7.056230 0.000000
					CHANNELS 3 Zrotation Yrotation Xrotation
					JOINT RightToeBase
					{
						OFFSET -0.164730 -0.452590 2.363150
						CHANNELS 3 Zrotation Yrotation Xrotation
						End Site
						{
							OFFSET 0.000000 0.000000 0.000000
						}
					}
				}
			}
		}
	}
}
MOTION
Frames: 27
Frame Time: 0.008333
4.066796 15.935111 0.173917 -51.767266 83.652237 -28.353166 -9.981162 -0.821772 -3.133884 -10.954594 5.252515 -45.567750 -1.669497 3.448043 58.161259 2.689811 8.700475 -30.048706 -3.949300 0.000000 -26.194900 10.282066 0.856487 -4.145495 15.378169 -5.106008 -52.240866 -1.204377 -5.999662 77.939559 -2.127165 -9.382831 -14.828093 0.984700 -0.000000 -15.517800
4.203437 15.966951 0.181753 -52.074762 83.648676 -28.417643 -10.018729 -0.804633 -3.219860 -10.897683 5.633875 -45.003394 -1.734680 3.400976 57.554134 2.651795 8.519865 -29.928274 -3.871600 0.000000 -27.018000 10.099372 0.945079 -3.958578 15.632588 -4.479409 -53.528544 -1.038676 -5.976178 76.846114 -2.246445 -9.686045 -15.597361 1.137100 -0.000000 -14.099000
4.340815 15.998002 0.190419 -52.334328 83.643153 -28.417174 -10.055289 -0.786173 -3.304473 -10.839596 6.021355 -44.456318 -1.801241 3.353695 56.933352 2.609428 8.318011 -29.787116 -3.783300 0.000000 -27.931800 9.913569 1.024103 -3.762182 15.872318 -3.851542 -54.797921 -0.867960 -5.946680 75.657743 -2.358999 -9.931458 -16.247010 1.268100 -0.000000 -13.024700
4.479094 16.028028 0.200076 -52.549939 83.641490 -28.359241 -10.090395 -0.764981 -3.386946 -10.782471 6.407090 -43.922490 -1.868315 3.306427 56.304121 2.561849 8.093173 -29.619370 -3.683000 -0.000000 -28.910100 9.727227 1.092529 -3.558873 16.095084 -3.235722 -56.040401 -0.691670 -5.911267 74.367186 -2.455451 -10.083800 -16.747266 1.364200 -0.000000 -12.403800
4.618380 16.056781 0.210894 -52.721271 83.649597 -28.246408 -10.123557 -0.739443 -3.466468 -10.729355 6.783016 -43.397859 -1.935077 3.259424 55.671630 2.508574 7.845024 -29.420590 -3.570099 0.000000 -29.924100 9.542943 1.149965 -3.351350 16.299171 -2.645505 -57.249505 -0.509328 -5.870240 72.970635 -2.528696 -10.121376 -17.077504 1.415201 -0.000000 -12.307500
4.758919 16.084105 0.223057 -52.822521 83.674385 -28.055444 -10.154011 -0.707298 -3.542214 -10.686947 7.140590 -42.878032 -2.001154 3.212896 55.039619 2.449975 7.575796 -29.190903 -3.446000 -0.000000 -30.917900 9.363384 1.197254 -3.142530 16.481850 -2.095652 -58.422536 -0.320468 -5.824306 71.470537 -2.574328 -10.034492 -17.234066 1.417000 -0.000000 -12.719300
4.900522 16.109806 0.236498 -52.890718 83.717985 -27.826446 -10.182350 -0.669200 -3.613575 -10.652232 7.476210 -42.362779 -2.064927 3.166959 54.414073 2.385969 7.289069 -28.922642 -3.311000 0.000000 -31.951200 9.189533 1.233163 -2.933072 16.648438 -1.589461 -59.556519 -0.125506 -5.773495 69.866893 -2.592664 -9.838781 -17.207597 1.369100 0.000000 -13.710200
5.043544 16.133834 0.251368 -52.854445 83.786195 -27.489384 -10.207391 -0.622118 -3.680248 -10.636467 7.783336 -41.845313 -2.127349 3.121505 53.793354 2.318707 6.991424 -28.628478 -3.170200 0.000000 -32.914000 9.023793 1.260540 -2.726163 16.795966 -1.141452 -60.655644 0.076389 -5.719296 68.176189 -2.585334 -9.544038 -17.037762 1.282300 -0.000000 -15.046600
5.187988 16.156130 0.267539 -52.714787 83.878323 -27.046239 -10.229409 -0.566651 -3.742176 -10.638908 8.061053 -41.325479 -2.187953 3.076413 53.178515 2.249511 6.689656 -28.311067 -3.026800 -0.000000 -33.836400 8.866481 1.279524 -2.522218 16.930923 -0.751353 -61.722715 0.285343 -5.662199 66.410592 -2.557929 -9.179127 -16.755583 1.168299 0.000000 -16.624400
5.333894 16.176638 0.284840 -52.455442 83.992170 -26.481352 -10.248591 -0.503159 -3.799550 -10.659310 8.309843 -40.800707 -2.246924 3.031330 52.567698 2.180249 6.391339 -27.978919 -2.884800 0.000000 -34.714300 8.717657 1.290626 -2.321523 17.059635 -0.417010 -62.760515 0.502124 -5.602626 64.586621 -2.517199 -8.771210 -16.410960 1.041800 -0.000001 -18.263500
5.481325 16.195366 0.303099 -52.061000 84.122616 -25.779176 -10.265345 -0.432715 -3.852913 -10.695227 8.532428 -40.269605 -2.304536 2.985902 51.958295 2.112695 6.103618 -27.640820 -2.748000 0.000000 -35.558200 8.576707 1.293999 -2.123444 17.189355 -0.130572 -63.770434 0.727655 -5.540368 62.720314 -2.470362 -8.345920 -16.056673 0.916600 0.000001 -19.821300
5.630281 16.212305 0.322072 -51.521707 84.262537 -24.930270 -10.280196 -0.356853 -3.902985 -10.741998 8.732812 -39.730474 -2.361167 2.939714 51.347154 2.048466 5.832574 -27.306798 -2.619800 -0.000001 -36.373000 8.442674 1.289355 -1.926853 17.327270 0.119373 -64.749540 0.963290 -5.474385 60.824814 -2.423747 -7.921748 -15.745140 0.803800 -0.000000 -21.187000
5.780853 16.227419 0.341507 -50.840643 84.403150 -23.936817 -10.293828 -0.277579 -3.950713 -10.792530 8.915754 -39.182907 -2.416898 2.892568 50.732448 1.988580 5.582642 -26.983225 -2.502201 0.000000 -37.187900 8.314347 1.276118 -1.729689 17.479058 0.349094 -65.691483 1.210181 -5.402584 58.907646 -2.382010 -7.510152 -15.515043 0.709900 -0.000000 -22.358200
5.933109 16.240686 0.361257 -50.020333 84.535581 -22.801458 -10.306940 -0.196807 -3.997136 -10.839524 9.085687 -38.625354 -2.471873 2.844290 50.112768 1.933743 5.356428 -26.677000 -2.396200 -0.000001 -38.013700 8.190745 1.253811 -1.529919 17.646628 0.574981 -66.583790 1.469500 -5.321888 56.971238 -2.347161 -7.111229 -15.394217 0.638500 -0.000000 -23.358199
6.087097 16.252016 0.381235 -49.074819 84.651833 -21.539233 -10.320281 -0.116259 -4.043305 -10.875331 9.246802 -38.056155 -2.525907 2.795001 49.488834 1.883913 5.154153 -26.390504 -2.301800 -0.000000 -38.871300 8.071261 1.222163 -1.325553 17.828563 0.812796 -67.408810 1.741706 -5.228311 55.012160 -2.318616 -6.717823 -15.389915 0.588900 0.000000 -24.279400
6.242911 16.261258 0.401416 -48.022890 84.745843 -20.170847 -10.334578 -0.037390 -4.090298 -10.893284 9.401678 -37.472849 -2.578626 2.745004 48.862987 1.838586 4.974122 -26.123934 -2.218000 -0.000000 -39.775299 7.955886 1.181775 -1.115124 18.017517 1.075732 -68.145114 2.026086 -5.117332 53.023701 -2.292973 -6.316308 -15.488826 0.557100 -0.000000 -25.241700
6.400682 16.268231 0.421922 -46.878028 84.814416 -18.712946 -10.350652 0.039036 -4.139050 -10.888692 9.551810 -36.871495 -2.629501 2.694839 48.239614 1.796870 4.813229 -25.875171 -2.143000 -0.000000 -40.733800 7.845370 1.134243 -0.898302 18.201538 1.371246 -68.769362 2.320189 -4.984581 50.999405 -2.264321 -5.890320 -15.656217 0.536500 0.000001 -26.376500
6.560523 16.272689 0.442961 -45.642733 84.858030 -17.173608 -10.369382 0.112928 -4.190306 -10.859784 9.697055 -36.246494 -2.677878 2.645217 47.624315 1.757540 4.667097 -25.639635 -2.074600 0.000000 -41.744799 7.741222 1.082630 -0.676303 18.363479 1.700371 -69.258933 2.619154 -4.826649 48.938362 -2.225194 -5.425267 -15.840989 0.518200 0.000000 -27.796700
6.722520 16.274361 0.464806 -44.311411 84.880189 -15.553559 -10.391845 0.184757 -4.244471 -10.807027 9.836494 -35.591086 -2.722975 2.596937 47.023589 1.719293 4.531337 -25.410793 -2.010300 -0.000000 -42.810200 7.645551 1.030982 -0.451989 18.483626 2.057652 -69.595846 2.915519 -4.642200 46.849229 -2.167718 -4.912586 -15.980331 0.493000 0.000000 -29.581600
6.886778 16.272950 0.487717 -42.855563 84.887005 -13.832961 -10.419195 0.255627 -4.301417 -10.733951 9.967936 -34.897425 -2.764049 2.550788 46.443861 1.680935 4.401829 -25.181930 -1.948100 0.000000 -43.919300 7.560947 0.984428 -0.230321 18.540766 2.431084 -69.769709 3.199215 -4.433186 44.756896 -2.084909 -4.350928 -16.011822 0.453600 -0.000000 -31.735900
7.053352 16.268207 0.511990 -41.225720 84.886018 -11.971075 -10.452755 0.327264 -4.360408 -10.646318 10.089042 -34.156876 -2.800481 2.507452 45.890615 1.641514 4.275400 -24.946373 -1.886199 -0.000000 -45.054200 7.490222 0.948323 -0.018169 18.515180 2.803765 -69.780579 3.458173 -4.205872 42.705453 -1.972028 -3.746762 -15.881949 0.396000 -0.000001 -34.185700
7.222297 16.259900 0.537743 -39.374667 84.884684 -9.929613 -10.493771 0.401393 -4.420038 -10.550629 10.197689 -33.362603 -2.831602 2.467454 45.368490 1.600418 4.150425 -24.697351 -1.823400 0.000000 -46.204499 7.436036 0.927074 0.176496 18.391835 3.157803 -69.640228 3.679318 -3.971214 40.757608 -1.827657 -3.114062 -15.551368 0.320100 0.000001 -36.814300
7.393577 16.247918 0.565016 -37.261309 84.888945 -7.674776 -10.543281 0.479514 -4.478293 -10.452348 10.292433 -32.510306 -2.856796 2.431099 44.880839 1.557377 4.026503 -24.428928 -1.759001 -0.000000 -47.364300 7.400605 0.923364 0.345203 18.162765 3.475716 -69.371953 3.850327 -3.744364 38.990834 -1.654065 -2.470939 -15.000337 0.230000 0.000000 -39.478800
7.567129 16.232250 0.593676 -34.857710 84.902435 -5.184425 -10.601819 0.562880 -4.532771 -10.356065 10.372468 -31.598701 -2.875509 2.398476 44.429757 1.512498 3.904498 -24.136670 -1.693100 -0.000000 -48.525200 7.385357 0.937703 0.479994 17.829240 3.743290 -69.008168 3.961265 -3.542940 37.490861 -1.456721 -1.835059 -14.231006 0.132900 0.000000 -42.031300
7.742833 16.213010 0.623402 -32.167350 84.925769 -2.464732 -10.669263 0.652052 -4.581028 -10.263012 10.438097 -30.630042 -2.887156 2.369474 44.016542 1.466204 3.786469 -23.817604 -1.626000 0.000000 -49.686400 7.390641 0.968502 0.574358 17.402252 3.950119 -68.586906 4.006235 -3.384281 36.341195 -1.243577 -1.220401 -13.268482 0.037800 -0.000000 -44.329100
7.920530 16.190479 0.653768 -29.244836 84.957508 0.429516 -10.744474 0.746765 -4.620885 -10.170757 10.490443 -29.611072 -2.891079 2.343906 43.642599 1.418956 3.674137 -23.469848 -1.558100 0.000000 -50.848500 7.415552 1.012628 0.624133 16.902950 4.090928 -68.146366 3.984154 -3.282099 35.611382 -1.024217 -0.636283 -12.159527 -0.046300 0.000000 -46.226900
8.099968 16.165064 0.684266 -26.169312 84.994525 3.421115 -10.825543 0.846484 -4.651024 -10.074618 10.531010 -28.549463 -2.886646 2.321672 43.308852 1.371218 3.569334 -23.091709 -1.489900 -0.000000 -52.023300 7.458103 1.067239 0.626838 16.358584 4.162262 -67.719341 3.898554 -3.244047 35.349367 -0.808333 -0.085403 -10.970550 -0.111000 0.000000 -47.570300
